<svg xmlns="http://www.w3.org/2000/svg" width="82" height="38" fill="none" viewBox="0 0 82 38">
  <rect width="80" height="36" x="1" y="1" fill="#B5D9B2" stroke="#DDEFE1" stroke-width="2" rx="4"/>
  <path fill="#243D0B" d="m13.637 23.041-1.063.044c-.093 0-.149-.017-.167-.05a.539.539 0 0 1-.028-.22c0-.114.013-.18.038-.201.027-.023.098-.034.212-.034h.42c.085 0 .703-1.407 1.856-4.222l.16-.382 1.484-3.446c.037-.095.117-.218.24-.369a2.11 2.11 0 0 0 .293-.461c.108-.235.201-.355.28-.36.097 0 .152.043.168.127l1.678 4.717c1.058 2.93 1.618 4.396 1.682 4.396h.489c.066 0 .108.016.126.047.019.03.028.095.028.195s-.01.169-.028.205c-.018.04-.06.058-.126.058l-1.302-.044-1.61.044c-.082 0-.133-.018-.154-.054a.554.554 0 0 1-.027-.219c0-.112.011-.178.034-.198.025-.023.093-.034.205-.034h.769c.01 0 .014-.033.014-.1 0-.066-.118-.461-.352-1.186a66.063 66.063 0 0 0-.517-1.562c-.109-.316-.173-.485-.191-.505-.018-.023-.062-.035-.13-.035h-2.826c-.098 0-.163.013-.195.038a.489.489 0 0 0-.1.185c-.747 1.889-1.125 2.939-1.134 3.15l.014.015h1.076c.078 0 .124.014.14.044.018.027.028.078.028.15a1.84 1.84 0 0 1-.01.22c-.005.026-.014.045-.028.054-.027.025-.07.037-.13.037l-1.316-.044Zm4.327-4.269c.085 0 .127-.014.127-.041 0-.03-.015-.08-.045-.154l-1.158-3.404c-.032-.112-.058-.168-.079-.168-.02 0-.051.056-.092.168l-1.37 3.36a.957.957 0 0 0-.073.208c0 .02.062.031.185.031h2.505Zm8.104 4.423.014-.503c0-.07-.051-.075-.154-.013-.585.364-1.15.547-1.692.547-1.075 0-1.818-.44-2.228-1.32a3.057 3.057 0 0 1-.277-1.312c0-.481.074-.896.222-1.244.148-.349.349-.648.602-.896.549-.535 1.235-.803 2.057-.803.442 0 .895.106 1.357.318a.357.357 0 0 0 .103.034c.018 0 .027-.178.027-.533a67.4 67.4 0 0 0-.051-1.98c-.032-.965-.067-1.449-.106-1.449l-.937.124c-.061 0-.085-.046-.071-.137a4.932 4.932 0 0 0 .03-.222.233.233 0 0 1 .017-.065l.014-.02a.03.03 0 0 1 .02-.018 33.378 33.378 0 0 0 .91-.12l.752-.106c.193-.027.318-.04.372-.04.057 0 .086.052.086.157 0 .105-.007.428-.02.97a182.193 182.193 0 0 0-.066 4.522c0 1.295.006 2.184.017 2.67.014.485.04.775.079.868.039.091.119.137.24.137.01 0 .048-.005.112-.014l.215-.03c.08-.012.14-.022.182-.031.09-.016.136.01.136.082 0 .068 0 .118-.003.15 0 .03-.004.064-.01.102-.016.076-.054.116-.113.12a65.371 65.371 0 0 1-1.726.222c-.046 0-.076-.011-.09-.034a.29.29 0 0 1-.02-.133Zm-2.895-4.184a2.49 2.49 0 0 0-.253.643 3.25 3.25 0 0 0-.085.78c0 .286.04.564.12.833.08.267.201.503.365.708.342.43.875.646 1.6.646.207 0 .456-.047.745-.14.29-.094.434-.186.434-.277v-3.5c0-.087-.092-.194-.277-.322-.355-.244-.677-.365-.964-.365-.284 0-.53.042-.738.126a1.71 1.71 0 0 0-.543.349c-.155.148-.29.321-.404.52Zm9.882 4.184.013-.503c0-.07-.05-.075-.153-.013-.586.364-1.15.547-1.692.547-1.076 0-1.819-.44-2.229-1.32a3.058 3.058 0 0 1-.277-1.312c0-.481.074-.896.223-1.244a2.73 2.73 0 0 1 .601-.896c.55-.535 1.235-.803 2.058-.803.442 0 .894.106 1.357.318a.358.358 0 0 0 .102.034c.018 0 .027-.178.027-.533 0-.356-.017-1.015-.05-1.98-.033-.965-.068-1.449-.107-1.449l-.936.124c-.062 0-.086-.046-.072-.137a4.679 4.679 0 0 0 .03-.222.228.228 0 0 1 .017-.065l.014-.02a.03.03 0 0 1 .021-.018 32.441 32.441 0 0 0 .909-.12l.752-.106c.194-.027.318-.04.373-.04.057 0 .085.052.085.157 0 .105-.007.428-.02.97a182.193 182.193 0 0 0-.065 4.522c0 1.295.005 2.184.017 2.67.013.485.04.775.078.868.04.091.119.137.24.137.011 0 .049-.005.112-.014l.216-.03c.08-.012.14-.022.18-.031.092-.016.138.01.138.082a2.338 2.338 0 0 1-.014.252c-.016.076-.054.116-.113.12a65.404 65.404 0 0 1-1.726.222c-.046 0-.075-.011-.089-.034a.29.29 0 0 1-.02-.133ZM30.16 19.01a2.47 2.47 0 0 0-.253.643 3.25 3.25 0 0 0 .034 1.613c.08.267.202.503.366.708.341.43.875.646 1.6.646.207 0 .455-.047.744-.14.29-.094.434-.186.434-.277v-3.5c0-.087-.092-.194-.276-.322-.356-.244-.677-.365-.964-.365-.285 0-.531.042-.739.126a1.71 1.71 0 0 0-.543.349 2.25 2.25 0 0 0-.403.52Zm9.18-.864c0-.003-.005-.004-.017-.004h-.048c-.45.027-.706.041-.765.041-.06 0-.09-.028-.09-.085 0-.01.017-.071.049-.185.032-.116.057-.18.075-.191.027-.019.308-.04.84-.062.536-.025.83-.038.883-.038.052 0 .086.013.102.038.018.023.028.075.028.157v.42c0 .065.002.1.006.107.007.004.028-.007.062-.034.75-.524 1.417-.787 2.003-.787.604 0 1.005.215 1.203.643a.266.266 0 0 0 .04.072.95.95 0 0 0 .124-.069c.077-.047.18-.104.308-.17.127-.069.268-.136.423-.202.367-.162.703-.243 1.009-.243.307 0 .564.034.769.103.207.068.378.162.512.28.135.119.244.267.329.444.15.324.225.743.225 1.258l-.03 2.379c0 .392.01.588.03.588h.557c.085 0 .138.018.16.055.026.034.038.092.038.174 0 .08-.012.138-.037.174-.025.039-.079.058-.16.058l-1.105-.027-1.234.027c-.077 0-.127-.018-.15-.054a.38.38 0 0 1-.03-.181c0-.15.07-.226.211-.226h.574c.073 0 .11-.877.11-2.632 0-.952-.258-1.514-.773-1.685a1.444 1.444 0 0 0-.461-.065 2.14 2.14 0 0 0-.595.096 3.024 3.024 0 0 0-.51.184c-.12.062-.18.1-.18.113a.83.83 0 0 0 .024.12c.04.189.061.508.061.957v1.569c0 .895.01 1.343.028 1.343h.502c.082 0 .133.017.154.051.02.032.03.09.03.174 0 .158-.061.236-.184.236l-1.077-.027-1.049.027c-.093 0-.155-.017-.185-.05-.027-.035-.04-.094-.04-.179a.37.37 0 0 1 .03-.177c.023-.037.073-.055.15-.055h.534c.066 0 .099-.439.099-1.316l-.014-1.316c0-.48-.016-.784-.048-.91a2.952 2.952 0 0 0-.092-.324.617.617 0 0 0-.116-.218.945.945 0 0 0-.171-.158c-.12-.093-.32-.14-.595-.14-.535 0-.974.136-1.316.407-.093.073-.14.148-.14.225v3.347c0 .237.015.362.045.376a.486.486 0 0 0 .177.027h.335c.085 0 .138.018.16.055.026.034.038.092.038.174 0 .08-.012.138-.037.174-.025.039-.079.058-.16.058l-1.105-.027-1.216.027c-.067 0-.112-.015-.137-.044-.023-.03-.034-.106-.034-.23 0-.124.05-.187.153-.187h.588c.066 0 .11-.12.134-.359.025-.24.037-.75.037-1.531v-1.525l-.037-1.018-.01-.027Zm9.516 2.262c0-.396.07-.778.212-1.145.141-.369.336-.69.584-.96.543-.593 1.248-.889 2.116-.889.77 0 1.393.277 1.87.83.47.545.704 1.21.704 1.997 0 .881-.246 1.6-.739 2.156-.503.57-1.19.855-2.06.855a2.517 2.517 0 0 1-1.918-.827c-.513-.552-.769-1.224-.769-2.017Zm1.077.226c0 .69.196 1.258.587 1.702.274.312.615.468 1.022.468 1.14 0 1.71-.887 1.71-2.662 0-.819-.24-1.457-.722-1.915a1.308 1.308 0 0 0-.933-.365c-1.11 0-1.664.924-1.664 2.772Zm5.318-2.56-.072-.004h-.253c-.077 0-.127-.017-.15-.051a.35.35 0 0 1-.03-.17c0-.16.06-.24.18-.24l.981.027 1.262-.027c.09 0 .14.035.146.106a.96.96 0 0 1 .007.143c0 .142-.046.212-.14.212h-.492c-.14 0-.209.024-.209.072.021.107.201.646.54 1.617.34.97.569 1.586.688 1.845.118.258.188.387.208.387.023 0 .052-.052.089-.154.88-2.092 1.32-3.287 1.32-3.586 0-.12-.034-.18-.1-.18h-.407c-.109 0-.168-.043-.177-.127a.953.953 0 0 1-.004-.096 1 1 0 0 1 .004-.099.23.23 0 0 1 .02-.068c.02-.048.078-.072.171-.072l.84.027.756-.027c.066 0 .108.018.127.055a.623.623 0 0 1 .027.232c0 .116-.056.174-.167.174h-.267c-.046 0-.075.01-.089.031a.923.923 0 0 1-.038.062c-.01.02-.044.08-.099.177-.052.096-.294.665-.724 1.706a54.462 54.462 0 0 1-.858 2.006c-.14.294-.24.482-.301.564-.06.082-.136.178-.229.287a4.037 4.037 0 0 0-.28.376c-.06.075-.116.113-.171.113a.185.185 0 0 1-.14-.068.666.666 0 0 1-.113-.195 4.662 4.662 0 0 1-.089-.236 8.609 8.609 0 0 1-.075-.256 8.815 8.815 0 0 0-.113-.373 50.78 50.78 0 0 0-.943-2.642 891.098 891.098 0 0 0-.581-1.5c-.005-.014-.01-.022-.014-.024a.07.07 0 0 1-.017-.014.033.033 0 0 0-.024-.01Zm6.716-.004-.67.028c-.084 0-.126-.018-.126-.052 0-.036.017-.102.051-.198.037-.096.07-.15.1-.164a.544.544 0 0 1 .184-.02l1.582-.069c.064 0 .103.01.117.027.016.017.023.05.023.1v2.379c0 1.67.024 2.505.072 2.505h.602c.077 0 .124.016.14.048.018.03.027.087.027.174a.4.4 0 0 1-.03.181c-.02.039-.067.058-.137.058l-1.207-.027-1.285.027c-.077 0-.125-.017-.143-.05a.41.41 0 0 1-.028-.179c0-.084.013-.143.038-.177.027-.037.085-.055.174-.055h.7c.028 0 .042-.498.042-1.494 0-.998-.01-1.735-.03-2.211-.02-.476-.033-.727-.042-.752-.007-.027-.018-.047-.034-.058a.126.126 0 0 0-.072-.02h-.048Zm.612-2.198a.694.694 0 0 1-.472-.157.551.551 0 0 1-.18-.434c0-.182.05-.338.15-.468.191-.246.404-.37.639-.37.48 0 .721.202.721.606a.738.738 0 0 1-.284.591c-.186.155-.378.232-.574.232Zm6.405 4.02-3.124-.072c-.027.069-.04.25-.04.544 0 .294.056.587.17.878.114.292.265.531.451.718.4.394.86.591 1.381.591.636 0 1.215-.272 1.737-.817.061-.061.1-.092.116-.092s.065.037.147.11c.084.07.126.114.126.133 0 .018-.037.075-.113.17a2.978 2.978 0 0 1-.334.346 4.334 4.334 0 0 1-.51.393c-.46.305-.933.458-1.418.458-.483 0-.898-.07-1.244-.212a2.3 2.3 0 0 1-.862-.585 2.636 2.636 0 0 1-.52-.898 3.549 3.549 0 0 1-.177-1.149c0-.417.07-.809.212-1.176.141-.367.336-.683.584-.95.54-.579 1.235-.868 2.085-.868.69 0 1.224.23 1.6.69.353.433.53.959.53 1.576 0 .141-.266.212-.797.212Zm-.567-.454c.21 0 .314-.018.314-.052 0-.67-.207-1.135-.622-1.394a1.164 1.164 0 0 0-.625-.188c-.214 0-.42.052-.619.157a1.687 1.687 0 0 0-.499.4c-.291.348-.451.705-.478 1.07 0 .045.042.068.126.068l2.403-.061Z"/>
</svg>
